<svg xmlns="http://www.w3.org/2000/svg" width="207" height="33" viewBox="0 0 207 33" fill="none">
  <path d="M203.43 28.6547V22.5842H204.832V23.7545C205.083 23.2303 205.67 22.5111 206.856 22.5111H207V23.9373H206.628C205.335 23.9373 204.879 24.6565 204.879 25.8389V28.6547H203.43Z" fill="white" fill-opacity="0.5"/>
  <path d="M199.008 28.838C197.055 28.838 195.953 27.5459 195.953 25.6322C195.953 23.7062 197.115 22.4019 198.996 22.4019C201.009 22.4019 202.135 23.8769 201.991 25.9491H197.379C197.415 27.0827 197.99 27.7532 198.984 27.7532C199.847 27.7532 200.254 27.3022 200.47 26.7536H201.895C201.692 27.6435 200.877 28.838 199.008 28.838ZM197.415 24.9983H200.53C200.482 23.95 199.799 23.4624 198.996 23.4624C198.098 23.4624 197.523 23.9866 197.415 24.9983Z" fill="white" fill-opacity="0.5"/>
  <path d="M189.057 28.6552V22.5848H190.458V23.3893C190.674 23.0236 191.297 22.4019 192.351 22.4019C193.633 22.4019 194.591 23.1942 194.591 24.7545V28.6552H193.154V24.9496C193.154 23.95 192.674 23.5843 191.92 23.5843C190.901 23.5843 190.506 24.3888 190.506 25.4737V28.6552H189.057Z" fill="white" fill-opacity="0.5"/>
  <path d="M186.68 28.6549C185.53 28.6549 184.895 27.9723 184.895 26.729V23.645H183.877V22.5845H184.895V21.0486H186.333V22.5845H187.675V23.645H186.333V26.7046C186.333 27.2897 186.609 27.4725 187.112 27.4725H187.675V28.6549H186.68Z" fill="white" fill-opacity="0.5"/>
  <path d="M179.82 28.6547V22.5842H181.221V23.7545C181.473 23.2303 182.06 22.5111 183.246 22.5111H183.39V23.9373H183.018C181.725 23.9373 181.269 24.6565 181.269 25.8389V28.6547H179.82Z" fill="white" fill-opacity="0.5"/>
  <path d="M174.494 28.8379C172.757 28.8379 171.607 27.5336 171.607 25.6198C171.607 23.7548 172.745 22.4261 174.494 22.4261C175.596 22.4261 176.291 22.9381 176.602 23.3648V22.5846H178.004V28.6551H176.602V27.814C176.423 28.0821 175.74 28.8379 174.494 28.8379ZM173.068 25.6198C173.068 26.8754 173.775 27.6799 174.853 27.6799C175.908 27.6799 176.65 26.8876 176.65 25.6198C176.65 24.3643 175.908 23.572 174.853 23.572C173.775 23.572 173.068 24.3643 173.068 25.6198Z" fill="white" fill-opacity="0.5"/>
  <path d="M164.222 28.6547V20.061H168.08C169.625 20.061 170.919 21.0728 170.919 22.7306C170.919 24.3884 169.697 25.3879 167.996 25.3879H165.732V28.6547H164.222ZM165.732 24.1324H167.876C168.727 24.1324 169.362 23.6448 169.362 22.7428C169.362 21.8163 168.727 21.3288 167.864 21.3288H165.732V24.1324Z" fill="white" fill-opacity="0.5"/>
  <path d="M155.52 28.8378C152.968 28.8378 151.267 26.9972 151.267 24.352C151.267 21.7922 152.932 19.8784 155.532 19.8784C158.203 19.8784 159.461 21.6703 159.665 23.3281H158.084C157.856 22.2432 157.137 21.2071 155.508 21.2071C153.998 21.2071 152.86 22.3285 152.86 24.352C152.86 26.3633 153.998 27.4969 155.508 27.4969C157.137 27.4969 157.88 26.473 158.095 25.3638H159.689C159.509 27.0215 158.227 28.8378 155.52 28.8378Z" fill="white" fill-opacity="0.5"/>
  <path d="M144.324 28.6547V20.061H150.147V21.3166H145.81V23.657H149.763V24.9003H145.81V27.387H150.147V28.6547H144.324Z" fill="white" fill-opacity="0.5"/>
  <path d="M134.392 28.6547L137.782 20.061H139.639L143.077 28.6547H141.388L140.609 26.5215H136.776L135.997 28.6547H134.392ZM137.207 25.2904H140.166L138.669 21.3409L137.207 25.2904Z" fill="white" fill-opacity="0.5"/>
  <path d="M127.23 28.8376C125.493 28.8376 124.331 27.5333 124.331 25.6073C124.331 23.7545 125.481 22.4258 127.23 22.4258C128.32 22.4258 128.967 22.9256 129.278 23.3279V20.061H130.728V28.6547H129.326V27.8136C129.147 28.0818 128.476 28.8376 127.23 28.8376ZM125.804 25.6195C125.792 26.875 126.499 27.6796 127.577 27.6796C128.632 27.6796 129.374 26.8872 129.374 25.6195C129.374 24.364 128.632 23.5717 127.577 23.5717C126.499 23.5717 125.804 24.364 125.804 25.6195Z" fill="white" fill-opacity="0.5"/>
  <path d="M120.125 28.6547V22.5842H121.526V23.7545C121.778 23.2303 122.365 22.5111 123.551 22.5111H123.695V23.9373H123.323C122.03 23.9373 121.574 24.6565 121.574 25.8389V28.6547H120.125Z" fill="white" fill-opacity="0.5"/>
  <path d="M114.8 28.8379C113.063 28.8379 111.913 27.5336 111.913 25.6198C111.913 23.7548 113.051 22.4261 114.8 22.4261C115.902 22.4261 116.597 22.9381 116.908 23.3648V22.5846H118.31V28.6551H116.908V27.814C116.728 28.0821 116.046 28.8379 114.8 28.8379ZM113.374 25.6198C113.374 26.8754 114.081 27.6799 115.159 27.6799C116.213 27.6799 116.956 26.8876 116.956 25.6198C116.956 24.3643 116.213 23.572 115.159 23.572C114.081 23.572 113.374 24.3643 113.374 25.6198Z" fill="white" fill-opacity="0.5"/>
  <path d="M106.982 28.8376C105.245 28.8376 104.083 27.5333 104.083 25.6073C104.083 23.7545 105.233 22.4258 106.982 22.4258C108.072 22.4258 108.719 22.9256 109.031 23.3279V20.061H110.48V28.6547H109.079V27.8136C108.899 28.0818 108.228 28.8376 106.982 28.8376ZM105.557 25.6195C105.545 26.875 106.252 27.6796 107.33 27.6796C108.384 27.6796 109.127 26.8872 109.127 25.6195C109.127 24.364 108.384 23.5717 107.33 23.5717C106.252 23.5717 105.557 24.364 105.557 25.6195Z" fill="white" fill-opacity="0.5"/>
  <path d="M97.1846 28.6552V22.5848H98.5862V23.3893C98.8018 23.0236 99.4248 22.4019 100.479 22.4019C101.761 22.4019 102.719 23.1942 102.719 24.7545V28.6552H101.282V24.9496C101.282 23.95 100.802 23.5843 100.048 23.5843C99.0294 23.5843 98.6341 24.3888 98.6341 25.4737V28.6552H97.1846Z" fill="white" fill-opacity="0.5"/>
  <path d="M91.8585 28.8379C90.1215 28.8379 88.9714 27.5336 88.9714 25.6198C88.9714 23.7548 90.1095 22.4261 91.8585 22.4261C92.9607 22.4261 93.6555 22.9381 93.967 23.3648V22.5846H95.3686V28.6551H93.967V27.814C93.7873 28.0821 93.1044 28.8379 91.8585 28.8379ZM90.433 25.6198C90.433 26.8754 91.1398 27.6799 92.2179 27.6799C93.2721 27.6799 94.0149 26.8876 94.0149 25.6198C94.0149 24.3643 93.2721 23.572 92.2179 23.572C91.1398 23.572 90.433 24.3643 90.433 25.6198Z" fill="white" fill-opacity="0.5"/>
  <path d="M87.0637 28.6549C85.9137 28.6549 85.2788 27.9723 85.2788 26.729V23.645H84.2605V22.5845H85.2788V21.0486H86.7163V22.5845H88.0581V23.645H86.7163V26.7046C86.7163 27.2897 86.9919 27.4725 87.495 27.4725H88.0581V28.6549H87.0637Z" fill="white" fill-opacity="0.5"/>
  <path d="M80.0289 28.8378C77.7887 28.8378 76.5788 27.5945 76.4709 25.9976H77.9684C78.0523 26.7656 78.5794 27.631 80.0169 27.631C81.3586 27.631 81.8977 26.9728 81.8977 26.3511C81.8977 25.6929 81.5863 25.2784 80.3524 25.0468L79.394 24.8762C77.5491 24.5592 76.8184 23.7425 76.8184 22.3773C76.8184 21.0364 77.9804 19.8784 79.8851 19.8784C82.1373 19.8784 83.1436 21.2315 83.2754 22.5723H81.766C81.6222 21.78 81.1191 21.073 79.8971 21.073C78.7231 21.073 78.2679 21.7191 78.2679 22.2554C78.2679 22.938 78.6153 23.2549 79.7893 23.4622L80.7117 23.6206C82.4847 23.9254 83.491 24.7665 83.491 26.2292C83.491 27.7651 82.1852 28.8378 80.0289 28.8378Z" fill="white" fill-opacity="0.5"/>
  <path d="M68.6598 28.8376C66.9228 28.8376 65.7607 27.5333 65.7607 25.6073C65.7607 23.7545 66.9108 22.4258 68.6598 22.4258C69.75 22.4258 70.3969 22.9256 70.7083 23.3279V20.061H72.1579V28.6547H70.7563V27.8136C70.5766 28.0818 69.9057 28.8376 68.6598 28.8376ZM67.2342 25.6195C67.2223 26.875 67.9291 27.6796 69.0072 27.6796C70.0614 27.6796 70.8042 26.8872 70.8042 25.6195C70.8042 24.364 70.0614 23.5717 69.0072 23.5717C67.9291 23.5717 67.2342 24.364 67.2342 25.6195Z" fill="white" fill-opacity="0.5"/>
  <path d="M64.2454 28.6547C63.1792 28.6547 62.676 28.1062 62.676 27.0945V20.061H64.1136V26.9969C64.1136 27.3748 64.2813 27.5089 64.6048 27.5089H64.8443V28.6547H64.2454Z" fill="white" fill-opacity="0.5"/>
  <path d="M58.0158 28.838C56.123 28.838 54.7454 27.5338 54.7454 25.6078C54.7454 23.7062 56.123 22.4019 58.0158 22.4019C59.9206 22.4019 61.2863 23.7062 61.2863 25.6078C61.2863 27.5338 59.9206 28.838 58.0158 28.838ZM56.2189 25.6078C56.2189 26.8268 56.9257 27.68 58.0158 27.68C59.1179 27.68 59.8128 26.8146 59.8128 25.6078C59.8128 24.401 59.1299 23.5599 58.0278 23.5599C56.9137 23.5599 56.2189 24.3766 56.2189 25.6078Z" fill="white" fill-opacity="0.5"/>
  <path d="M49.8664 28.8378C46.9674 28.8378 45.3381 26.985 45.3381 24.3642C45.3381 21.7434 47.0273 19.8784 49.6508 19.8784C51.9389 19.8784 53.2207 21.1827 53.4484 22.8283H51.867C51.6514 21.7922 50.9686 21.1461 49.5789 21.1461C48.0096 21.1461 46.8955 22.3895 46.8955 24.3764C46.8955 26.3633 48.0695 27.5701 49.8185 27.5701C50.8009 27.5701 51.6155 27.2775 52.0707 26.9728V25.2053H49.4591V24.0107H53.4723V27.7651C52.7775 28.3136 51.2561 28.8378 49.8664 28.8378Z" fill="white" fill-opacity="0.5"/>
  <path d="M137.322 13.2623C135.585 13.2623 134.423 11.958 134.423 10.0321C134.423 8.17924 135.573 6.85057 137.322 6.85057C138.412 6.85057 139.059 7.35034 139.37 7.7526V4.48578H140.82V13.0795H139.418V12.2384C139.238 12.5066 138.568 13.2623 137.322 13.2623ZM135.896 10.0443C135.884 11.2998 136.591 12.1043 137.669 12.1043C138.723 12.1043 139.466 11.312 139.466 10.0443C139.466 8.78872 138.723 7.9964 137.669 7.9964C136.591 7.9964 135.896 8.78872 135.896 10.0443Z" fill="white" fill-opacity="0.5"/>
  <path d="M130.384 13.2621C128.432 13.2621 127.33 11.97 127.33 10.0562C127.33 8.13022 128.492 6.82593 130.372 6.82593C132.385 6.82593 133.511 8.30087 133.367 10.3731H128.755C128.791 11.5067 129.366 12.1772 130.36 12.1772C131.223 12.1772 131.63 11.7262 131.846 11.1776H133.272C133.068 12.0675 132.253 13.2621 130.384 13.2621ZM128.791 9.42232H131.906C131.858 8.37401 131.175 7.88643 130.372 7.88643C129.474 7.88643 128.899 8.41058 128.791 9.42232Z" fill="white" fill-opacity="0.5"/>
  <path d="M125.434 13.0794C124.284 13.0794 123.649 12.3967 123.649 11.1534V8.06942H122.631V7.00892H123.649V5.47302H125.086V7.00892H126.428V8.06942H125.086V11.129C125.086 11.7141 125.362 11.897 125.865 11.897H126.428V13.0794H125.434Z" fill="white" fill-opacity="0.5"/>
  <path d="M120.009 13.0791V7.0087H121.458V13.0791H120.009ZM119.853 5.05835C119.853 4.59515 120.176 4.20508 120.727 4.20508C121.278 4.20508 121.614 4.59515 121.614 5.05835C121.614 5.52156 121.278 5.93601 120.727 5.93601C120.176 5.93601 119.853 5.52156 119.853 5.05835Z" fill="white" fill-opacity="0.5"/>
  <path d="M114.695 13.2623C112.958 13.2623 111.796 11.958 111.796 10.0321C111.796 8.17924 112.946 6.85057 114.695 6.85057C115.786 6.85057 116.433 7.35034 116.744 7.7526V4.48578H118.194V13.0795H116.792V12.2384C116.612 12.5066 115.941 13.2623 114.695 13.2623ZM113.27 10.0443C113.258 11.2998 113.965 12.1043 115.043 12.1043C116.097 12.1043 116.84 11.312 116.84 10.0443C116.84 8.78872 116.097 7.9964 115.043 7.9964C113.965 7.9964 113.27 8.78872 113.27 10.0443Z" fill="white" fill-opacity="0.5"/>
  <path d="M107.757 13.2621C105.805 13.2621 104.703 11.97 104.703 10.0562C104.703 8.13022 105.865 6.82593 107.745 6.82593C109.758 6.82593 110.884 8.30087 110.74 10.3731H106.128C106.164 11.5067 106.739 12.1772 107.733 12.1772C108.596 12.1772 109.003 11.7262 109.219 11.1776H110.645C110.441 12.0675 109.626 13.2621 107.757 13.2621ZM106.164 9.42232H109.279C109.231 8.37401 108.548 7.88643 107.745 7.88643C106.847 7.88643 106.272 8.41058 106.164 9.42232Z" fill="white" fill-opacity="0.5"/>
  <path d="M100.498 13.0792V7.00875H101.899V8.17895C102.151 7.6548 102.738 6.93561 103.924 6.93561H104.068V8.3618H103.696C102.403 8.3618 101.947 9.08098 101.947 10.2634V13.0792H100.498Z" fill="white" fill-opacity="0.5"/>
  <path d="M96.0437 13.2621C94.1509 13.2621 92.8811 11.8968 92.8811 10.0684C92.8811 8.16679 94.2228 6.82593 96.0437 6.82593C98.0324 6.82593 99.0147 8.06927 99.1345 9.27605H97.6849C97.5172 8.45934 97.0141 7.98394 96.0557 7.98394C95.0374 7.98394 94.3546 8.75189 94.3546 10.0562C94.3546 11.3239 95.0614 12.104 96.0557 12.104C97.038 12.104 97.5532 11.5311 97.6969 10.751H99.1345C99.0506 11.8481 98.1282 13.2621 96.0437 13.2621Z" fill="white" fill-opacity="0.5"/>
  <path d="M88.8081 13.2621C86.9154 13.2621 85.6455 11.8968 85.6455 10.0684C85.6455 8.16679 86.9872 6.82593 88.8081 6.82593C90.7968 6.82593 91.7791 8.06927 91.8989 9.27605H90.4494C90.2816 8.45934 89.7785 7.98394 88.8201 7.98394C87.8018 7.98394 87.119 8.75189 87.119 10.0562C87.119 11.3239 87.8258 12.104 88.8201 12.104C89.8025 12.104 90.3176 11.5311 90.4613 10.751H91.8989C91.815 11.8481 90.8926 13.2621 88.8081 13.2621Z" fill="white" fill-opacity="0.5"/>
  <path d="M76.489 13.0795L79.8793 4.48578H81.7361L85.1743 13.0795H83.4851L82.7065 10.9463H78.873L78.0943 13.0795H76.489ZM79.3042 9.71514H82.2632L80.7658 5.76569L79.3042 9.71514Z" fill="white" fill-opacity="0.5"/>
  <path d="M69.0675 13.2621C66.5158 13.2621 64.8147 11.4215 64.8147 8.77633C64.8147 6.21651 66.4799 4.30273 69.0795 4.30273C71.7509 4.30273 73.0088 6.09461 73.2124 7.7524H71.6311C71.4035 6.66752 70.6847 5.63141 69.0555 5.63141C67.5461 5.63141 66.408 6.75285 66.408 8.77633C66.408 10.7876 67.5461 11.9213 69.0555 11.9213C70.6847 11.9213 71.4275 10.8973 71.6431 9.78807H73.2364C73.0567 11.4459 71.7749 13.2621 69.0675 13.2621Z" fill="white" fill-opacity="0.5"/>
  <path d="M61.6177 13.0795V4.48578H63.1271V13.0795H61.6177Z" fill="white" fill-opacity="0.5"/>
  <path d="M53.4497 13.0795V4.48578H57.3072C58.8525 4.48578 60.1463 5.49752 60.1463 7.15531C60.1463 8.8131 58.9244 9.81265 57.2233 9.81265H54.9591V13.0795H53.4497ZM54.9591 8.55712H57.1035C57.9541 8.55712 58.589 8.06953 58.589 7.1675C58.589 6.24109 57.9541 5.7535 57.0915 5.7535H54.9591V8.55712Z" fill="white" fill-opacity="0.5"/>
  <path d="M45.8396 13.0795V4.48578H51.6617V5.74131H47.3251V8.08172H51.2784V9.32507H47.3251V11.8118H51.6617V13.0795H45.8396Z" fill="white" fill-opacity="0.5"/>
  <path d="M12.697 9.74001V6.56493C12.697 6.05886 12.4637 5.82489 11.9816 5.82489H11.193V10.4783H11.9816C12.4654 10.4783 12.697 10.2444 12.697 9.74001ZM10.1387 21.0053L9.70947 22.0937H10.5628L10.1387 21.0053Z" fill="white" fill-opacity="0.5"/>
  <path fill-rule="evenodd" clip-rule="evenodd" d="M2.56342 0H25.4638C27.3425 0 28.0273 0.694982 28.0273 2.57889V25.5289C28.0273 25.8235 27.9762 26.3556 27.8808 26.5844C27.8051 26.8019 27.6829 26.9996 27.5231 27.1632C27.3425 27.3348 27.0291 27.5133 26.8793 27.5826L14.7384 32.782C14.5089 32.88 14.2625 32.9304 14.0136 32.9304C13.7648 32.9304 13.5184 32.88 13.2889 32.782L1.14971 27.5826C0.917318 27.4731 0.700244 27.3326 0.504167 27.165C0.344117 27.0008 0.221941 26.8025 0.146481 26.5844C0.0528012 26.3573 0 25.8253 0 25.5306V2.57889C0 0.694982 0.686416 0 2.56342 0ZM17.3938 4.13003H15.4759V16.7558H17.3938V4.13003ZM16.6886 19.7749H15.5747L14.6651 21.2567L13.759 19.7749H12.6434V23.6017H13.6772V21.4145L14.6447 22.9015H14.6668L15.6394 21.4041V23.6017H16.6886V19.7749ZM12.2823 4.13003H9.27429V16.7576H11.1905V12.1752H12.2823C13.8407 12.1752 14.6123 11.4005 14.6123 9.83027V6.47495C14.6123 4.90474 13.8407 4.13003 12.2823 4.13003ZM8.31365 4.13003H4.04867V16.7576H8.34771V15.0071H5.96654V11.2012H8.22167V9.45072H5.96654V5.88048H8.31194L8.31365 4.13003ZM6.96125 23.5133C7.23718 23.4 7.47621 23.2597 7.67833 23.0921V21.3694H5.93078V22.1493H6.68021V22.612C6.4971 22.7241 6.28565 22.779 6.07215 22.7698C5.93504 22.7733 5.79863 22.7488 5.67104 22.6975C5.54346 22.6463 5.42731 22.5695 5.32952 22.4717C5.23723 22.3748 5.16434 22.2606 5.11491 22.1354C5.06442 21.9992 5.03845 21.8547 5.03826 21.7091V21.6987C5.03704 21.4235 5.13803 21.1579 5.32101 20.9552C5.40822 20.8574 5.51477 20.7796 5.63366 20.7267C5.75255 20.6738 5.88109 20.6472 6.01083 20.6484C6.19932 20.6484 6.36511 20.6796 6.50818 20.742C6.66106 20.8095 6.80338 20.8994 6.93059 21.0089L7.54888 20.2619C7.34896 20.0883 7.12221 19.9495 6.87779 19.8512C6.59867 19.7472 6.30289 19.6972 6.00572 19.7039C5.71049 19.7039 5.43796 19.7547 5.18815 19.8564C4.9467 19.9545 4.72587 20.0986 4.5375 20.281C4.35582 20.4612 4.21388 20.6715 4.11169 20.9119C4.00949 21.1533 3.95782 21.4139 3.95669 21.6935V21.7056C3.95669 21.9945 4.00892 22.2591 4.11339 22.4994C4.21899 22.742 4.36434 22.9512 4.54943 23.1268C4.73338 23.3013 4.9514 23.4376 5.20348 23.5358C5.4567 23.634 5.73149 23.6831 6.02786 23.6831C6.37533 23.6831 6.68703 23.6265 6.96296 23.5133M9.63708 19.7472L8.01557 23.6017H9.1261L9.39863 22.9188H10.8651L11.1445 23.6017H12.2737L10.6539 19.7472H9.63708ZM18.6184 27.8686L18.6406 27.8374L18.6474 27.7975C18.647 27.771 18.6366 27.7455 18.6184 27.7265C18.61 27.7167 18.5995 27.7089 18.5877 27.7038C18.5759 27.6987 18.5631 27.6964 18.5503 27.697H9.49231C9.46618 27.6974 9.44119 27.7079 9.42247 27.7265L9.40033 27.7577L9.39181 27.7975C9.39264 27.8244 9.40363 27.8498 9.42247 27.8686C9.43042 27.8779 9.44064 27.8848 9.45313 27.8894L13.8476 29.7872C13.8963 29.8084 13.9487 29.8193 14.0017 29.8193C14.0547 29.8193 14.1071 29.8084 14.1559 29.7872L18.5843 27.8894L18.6184 27.8686ZM17.3938 23.6017H20.4818V22.7004H18.4379V22.0938H20.2638V21.2567H18.4379V20.6779H20.4545V19.7767H17.3955L17.3938 23.6017ZM18.4055 6.36576V14.5201C18.4055 16.0903 19.1771 16.865 20.7356 16.865H21.6843C23.2428 16.865 24.0127 16.0886 24.0127 14.5201V11.5773H22.1322V14.4282C22.1322 14.9326 21.8989 15.1666 21.4169 15.1666H21.0592C20.5567 15.1666 20.3234 14.9326 20.3234 14.4282V6.45588C20.3234 5.94981 20.555 5.71584 21.0575 5.71584H21.3811C21.8631 5.71584 22.0965 5.94981 22.0965 6.45415V8.92558H23.9769V6.34843C23.9769 4.77822 23.224 4.02084 21.6656 4.02084H20.7339C19.1771 4.02084 18.4055 4.79728 18.4055 6.36576ZM23.9752 22.95C24.0502 22.7856 24.088 22.6061 24.0859 22.4249V22.4127C24.0932 22.2586 24.0622 22.1051 23.9958 21.9664C23.9295 21.8276 23.8298 21.7082 23.7061 21.619C23.5682 21.5199 23.4167 21.4422 23.2564 21.3885C23.0634 21.3205 22.8666 21.2644 22.6671 21.2204C22.5579 21.1974 22.4499 21.1691 22.3435 21.1354C22.2748 21.1126 22.2077 21.0854 22.1425 21.054C22.1009 21.0334 22.0651 21.0024 22.0386 20.9638C22.0183 20.9294 22.0082 20.8896 22.0096 20.8495V20.8391C22.0096 20.7697 22.0408 20.7114 22.1033 20.664C22.1898 20.6123 22.2893 20.5876 22.3894 20.593C22.5598 20.593 22.7358 20.6247 22.9175 20.6883C23.1014 20.7518 23.2803 20.846 23.454 20.9708L23.982 20.2221C23.7752 20.0538 23.5404 19.9247 23.2888 19.8408C23.0333 19.7541 22.742 19.7114 22.415 19.7125C22.1868 19.7125 21.9824 19.7426 21.8018 19.8027C21.632 19.8559 21.474 19.9425 21.3368 20.0574C21.2089 20.1634 21.1067 20.298 21.0381 20.4507C20.9696 20.6033 20.9366 20.7701 20.9417 20.9379V20.95C20.9385 21.1215 20.9771 21.2912 21.0541 21.4439C21.129 21.5768 21.2307 21.6877 21.359 21.7767C21.4873 21.8668 21.6389 21.9402 21.8137 21.9968C21.9863 22.0522 22.1743 22.1042 22.3775 22.1528C22.5081 22.1817 22.6143 22.2094 22.696 22.236C22.7641 22.2578 22.8298 22.2868 22.8919 22.3226C22.9308 22.3451 22.9649 22.3751 22.9924 22.411C23.0106 22.4422 23.0197 22.478 23.0197 22.5185V22.5289C23.0212 22.5688 23.0115 22.6083 22.9915 22.6427C22.9716 22.6772 22.9423 22.705 22.9072 22.723C22.8066 22.7728 22.6954 22.7966 22.5836 22.7923C22.1419 22.7923 21.7308 22.6386 21.3505 22.3313L20.7628 23.0367C21.0001 23.2481 21.271 23.407 21.5753 23.5133C21.8819 23.6184 22.2055 23.671 22.5461 23.671C22.7591 23.6737 22.9714 23.6451 23.1764 23.5861C23.3527 23.538 23.5178 23.4543 23.6618 23.34C23.7913 23.2335 23.8975 23.1007 23.9735 22.95" fill="white" fill-opacity="0.5"/>
</svg>