<?xml version="1.0" encoding="UTF-8"?>
<svg id="Layer_1" xmlns="http://www.w3.org/2000/svg" width="283" height="68" version="1.1" viewBox="0 0 283 68">
  <!-- Generator: Adobe Illustrator 29.3.1, SVG Export Plug-In . SVG Version: 2.1.0 Build 151)  -->
  <defs>
    <style>
      .st0, .st1 {
        fill: #fff;
      }

      .st1 {
        fill-opacity: .9;
      }
    </style>
  </defs>
  <path class="st1" d="M87.2,51V17h4.8v34h-4.8Z"/>
  <path class="st1" d="M150.1,17h23.5v4.1h-18.7v10.2h17.8v4.1h-17.8v11.4h18.7v4.1h-23.5V17Z"/>
  <path class="st1" d="M197.5,36.4l14.4,14.6h-6.5l-14.2-14.6h-2.6v14.6h-4.8V17h16.1c6.7,0,10.8,3.6,10.8,9.7s-4.1,9.7-10.8,9.7h-2.4ZM199.9,32.3c4.1,0,6-2.2,6-5.6s-1.9-5.6-6-5.6h-11.3v11.2h11.3Z"/>
  <path class="st1" d="M244.2,51h-25.4v-4.1l19-25.7h-18.5v-4.1h24.2v4.1l-19,25.7h19.7v4.1h0Z"/>
  <path class="st1" d="M274.8,43h-15.8l-3.1,8h-5l13.7-34h4.8l13.7,34h-5l-3.1-8ZM266.8,22.3c-.7,2.2-1.9,5.6-3.1,8.7l-3.1,7.8h12.6l-3.1-7.8c-1.2-3.1-2.4-6.5-3.1-8.7h-.2Z"/>
  <path class="st1" d="M102.7,17h8.3l9.9,28.7,10-28.7h8v34h-4.8v-30.2c0,0-10.5,30.2-10.5,30.2h-5.5l-10.6-30.2v30.2s-4.7,0-4.7,0V17Z"/>
  <path class="st0" d="M0,51l14.7,8.5v-17L0,51ZM14.8,59.5l14.7,8.5,29.5-17-14.7-8.5-29.5,17ZM29.5,0L0,17l14.7,8.5,29.5-17L29.5,0ZM59,17l-14.7-8.5v17l14.7-8.5h0ZM14.8,25.5v17l14.7-8.5-14.7-8.5ZM44.3,42.5v-17l-14.7,8.5,14.7,8.5Z"/>
</svg>